# xmcd
#
# Track frame offsets:
#	150
#	11899
#	25492
#	46914
#	62154
#	77744
#	93043
#	107455
#	121187
#	135034
#	150926
#	163544
#
# Disc length: 2362 seconds
#
# Revision: 0
# Processed by: cddbd v1.5.1PL0 Copyright (c) Steve Scherf et al.
# Submitted via: EasyCDDAExtractor 8.1.2.3
#
DISCID=7f09380c
DTITLE=Various Artist - Country Feuer CD 3
DYEAR=2001
DGENRE=Country
TTITLE0=Greyhounds - Nimm es Leicht
TTITLE1=Iris McCollins - Das geht ganz tief rein
TTITLE2=Larry Schuba and Western Union - Sag zu Daddy
TTITLE3=Dagmar - Du hast doch ein Rad ab
TTITLE4=Mike Herman and Booze Company - Zusammen mit dir
TTITLE5=Hanna and Daana - Ein Herz voller Gefühl
TTITLE6=Gunter Gabriel - Den Rocker kriegst du nicht mehr aus mir raus
TTITLE7=Joe Hodkins Boss Band - Es gibt immer einen Grund
TTITLE8=Linda Feller - Minuten im Fieber
TTITLE9=Frank Faber - Ich bin ein schlechter Verlierer
TTITLE10=Max Zwo - Gibt's Koane Madln zum Heirat'n mehr
TTITLE11=Country Rose - Drunter und drüber
EXTD=
EXTT0=
EXTT1=
EXTT2=
EXTT3=
EXTT4=
EXTT5=
EXTT6=
EXTT7=
EXTT8=
EXTT9=
EXTT10=
EXTT11=
PLAYORDER=
